<?xml version="1.0" standalone="no"?>
<!DOCTYPE svg PUBLIC "-//W3C//DTD SVG 1.1//EN" "http://www.w3.org/Graphics/SVG/1.1/DTD/svg11.dtd" >
<svg xmlns="http://www.w3.org/2000/svg" xmlns:xlink="http://www.w3.org/1999/xlink" version="1.1">
<metadata>
Created by FontForge 20170731 at Thu Sep 14 15:15:03 2023
 By Aleksey,,,
(c) Copyright OH no Type Company, LLC. 2021. All rights reserved.
</metadata>
<defs>
<font id="RetailDemo-Medium" horiz-adv-x="1212" >
  <font-face 
    font-family="Retail Demo Medium"
    font-weight="500"
    font-stretch="normal"
    units-per-em="2048"
    panose-1="4 4 5 6 6 3 3 4 3 5"
    ascent="1475"
    descent="-573"
    x-height="1065"
    cap-height="1395"
    bbox="-47 -406 1915 1538"
    underline-thickness="102"
    underline-position="-388"
    unicode-range="U+0020-00A0"
  />
<missing-glyph horiz-adv-x="1751" 
d="M745 31q37 0 69.5 1.5t52.5 3t51.5 7t42.5 7.5t51 10.5t53 11.5q0 180 40 303.5t95 181.5l43 -41q-33 -68 -69 -229q85 49 141.5 115t88.5 163.5t32 222.5q0 262 -132.5 396.5t-398.5 134.5q-216 0 -349.5 -107t-160.5 -282q10 2 35 2q106 0 157.5 -64.5t51.5 -156.5
q0 -56 -21.5 -101t-56 -71t-73.5 -39t-78 -13h-19q3 -89 5.5 -215.5t4.5 -175.5q144 -65 344 -65zM745 -68q-280 0 -426 131q-10 269 15 439q-59 22 -95 76.5t-36 128.5q0 69 33.5 123.5t93.5 80.5q6 217 161 353.5t420 136.5q300 0 454.5 -157.5t154.5 -446.5
q0 -213 -89.5 -370.5t-275.5 -223.5q-25 -139 -25 -185q-138 -86 -385 -86zM932 936q109 0 167 -64t58 -155q0 -104 -73.5 -176t-168.5 -72q-96 0 -159.5 64t-63.5 172q0 93 62.5 162t177.5 69z" />
    <glyph glyph-name=".notdef" horiz-adv-x="1751" 
d="M745 31q37 0 69.5 1.5t52.5 3t51.5 7t42.5 7.5t51 10.5t53 11.5q0 180 40 303.5t95 181.5l43 -41q-33 -68 -69 -229q85 49 141.5 115t88.5 163.5t32 222.5q0 262 -132.5 396.5t-398.5 134.5q-216 0 -349.5 -107t-160.5 -282q10 2 35 2q106 0 157.5 -64.5t51.5 -156.5
q0 -56 -21.5 -101t-56 -71t-73.5 -39t-78 -13h-19q3 -89 5.5 -215.5t4.5 -175.5q144 -65 344 -65zM745 -68q-280 0 -426 131q-10 269 15 439q-59 22 -95 76.5t-36 128.5q0 69 33.5 123.5t93.5 80.5q6 217 161 353.5t420 136.5q300 0 454.5 -157.5t154.5 -446.5
q0 -213 -89.5 -370.5t-275.5 -223.5q-25 -139 -25 -185q-138 -86 -385 -86zM932 936q109 0 167 -64t58 -155q0 -104 -73.5 -176t-168.5 -72q-96 0 -159.5 64t-63.5 172q0 93 62.5 162t177.5 69z" />
    <glyph glyph-name=".null" horiz-adv-x="0" 
 />
    <glyph glyph-name="nonmarkingreturn" horiz-adv-x="682" 
 />
    <glyph glyph-name="space" unicode=" " horiz-adv-x="491" 
 />
    <glyph glyph-name="comma" unicode="," horiz-adv-x="477" 
d="M35 -295l137 580l221 -35l-250 -559z" />
    <glyph glyph-name="period" unicode="." horiz-adv-x="477" 
d="M238 -16q-65 0 -104.5 35.5t-39.5 97.5q0 68 42.5 107.5t103.5 39.5q65 0 104 -36t39 -97q0 -69 -41.5 -108t-103.5 -39z" />
    <glyph glyph-name="zero" unicode="0" horiz-adv-x="1335" 
d="M668 1235q-196 0 -294 -145t-98 -404q0 -242 97 -383t291 -141q133 1 222.5 69t131 188.5t41.5 291.5q0 159 -40 274t-129.5 182.5t-221.5 67.5zM686 1415q258 0 405.5 -180t147.5 -502q0 -181 -45.5 -325.5t-125.5 -236.5t-186.5 -140.5t-230.5 -48.5q-257 0 -405 180
t-148 502q0 181 46 325.5t126 236.5t186 140.5t230 48.5z" />
    <glyph glyph-name="one" unicode="1" horiz-adv-x="573" 
d="M391 733l8 -733h-178l2 1133l-178 47v26l332 209h20z" />
    <glyph glyph-name="two" unicode="2" horiz-adv-x="1128" 
d="M41 0l-6 18l381 383q65 66 98.5 100.5t83 87.5t73.5 84.5t54.5 75.5t44 77.5t23.5 72.5t10 78q0 258 -297 258q-180 0 -381 -84v199q176 67 401 67q461 0 461 -409q0 -55 -14 -110.5t-34.5 -102.5t-58.5 -103t-70.5 -96.5t-88 -98.5t-93 -94.5t-102.5 -97.5l-129 -123
h639v-182h-995z" />
    <glyph glyph-name="three" unicode="3" horiz-adv-x="1150" 
d="M88 -14v182q401 0 588.5 62.5t187.5 203.5q0 83 -69 135t-207 52q-117 0 -242 -13v166q116 18 203 42.5t139 50.5t84 58t43.5 62t11.5 66q0 98 -68 143t-216 45q-226 0 -418 -82v184q198 74 430 74q225 0 340 -82t115 -239q0 -119 -91.5 -213.5t-285.5 -137.5
q90 -1 159.5 -19t113.5 -47t72 -69.5t39 -83.5t11 -92q0 -233 -228 -340.5t-712 -107.5z" />
    <glyph glyph-name="four" unicode="4" horiz-adv-x="1234" 
d="M389 1395h186l-307 -846l512 4l2 729h170l2 -727l222 6v-182l-222 4l2 -383h-178l2 385l-735 -4z" />
    <glyph glyph-name="five" unicode="5" horiz-adv-x="1112" 
d="M950 1395v-183h-633l5 -424q160 23 299 23q100 0 174.5 -20t118 -51.5t70 -78.5t35.5 -92.5t9 -101.5q0 -250 -230.5 -365.5t-709.5 -115.5v180q399 0 590.5 70.5t191.5 218.5q0 90 -65 138t-221 48q-138 0 -422 -27l2 781h786z" />
    <glyph glyph-name="six" unicode="6" 
d="M627 164q158 0 236.5 75t78.5 216q0 270 -291 270q-226 0 -387 -111q-2 -25 -2 -73q0 -170 92 -273.5t273 -103.5zM610 -20q-233 0 -373.5 149t-140.5 424q0 157 46.5 293t128.5 236t193 173t241.5 111.5t271.5 42.5v-190q-62 -5 -120.5 -14.5t-123.5 -28.5t-122 -45
t-112 -66.5t-98 -90.5t-76 -119t-49 -150q96 84 212 126.5t227 42.5q87 0 158.5 -23.5t126 -70.5t84.5 -123.5t30 -175.5q0 -102 -28.5 -186.5t-77 -141.5t-113.5 -97t-136.5 -58t-148.5 -18z" />
    <glyph glyph-name="seven" unicode="7" horiz-adv-x="1013" 
d="M436 0h-207l531 1212h-737v183h970l4 -17z" />
    <glyph glyph-name="eight" unicode="8" horiz-adv-x="1159" 
d="M621 782q35 -9 49 -14q94 70 141 138t47 149q0 92 -76.5 138t-195.5 46q-132 0 -204.5 -55.5t-72.5 -147.5q0 -101 76.5 -157.5t235.5 -96.5zM559 -20q-219 0 -351 93.5t-132 245.5q0 114 78 204t221 173q-117 54 -175.5 133t-58.5 195q0 176 131 284.5t328 108.5
q201 0 316.5 -90.5t115.5 -245.5q0 -186 -262 -344q149 -52 230 -133.5t81 -214.5q0 -180 -147.5 -294.5t-374.5 -114.5zM590 162q153 0 235 56t82 159q0 94 -78 150.5t-227 93.5q-84 21 -135 38q-203 -134 -203 -294q0 -67 47.5 -114.5t119 -68t159.5 -20.5z" />
    <glyph glyph-name="nine" unicode="9" horiz-adv-x="1204" 
d="M563 684q216 0 377 111q2 20 2 63q0 169 -90.5 273t-271.5 104q-157 0 -237.5 -73.5t-80.5 -209.5q0 -268 301 -268zM205 -10v190q94 8 178 25t177.5 55.5t164 93.5t126.5 144.5t77 203.5q-95 -83 -208.5 -125t-225.5 -42q-181 0 -292.5 98.5t-111.5 292.5
q0 119 40.5 214.5t110.5 155.5t159.5 91.5t191.5 31.5q236 0 376 -149t140 -424q0 -196 -73 -357.5t-198 -267.5t-287 -166t-345 -65z" />
    <glyph glyph-name="A" unicode="A" horiz-adv-x="1298" 
d="M664 1423l641 -1423h-201l-146 346h-622l-139 -346h-203l643 1423h27zM887 512l-250 590l-236 -590h486z" />
    <glyph glyph-name="B" unicode="B" horiz-adv-x="1193" 
d="M641 180q293 0 293 244q0 62 -22 104.5t-63.5 65t-91 32t-114.5 9.5q-197 0 -303 -2v-449q188 -4 301 -4zM629 780q127 0 193.5 61.5t66.5 168.5q0 101 -60 152.5t-202 51.5q-39 0 -140.5 -1t-146.5 -1v-430q46 0 144.5 -1t144.5 -1zM1116 391q0 -178 -113 -284.5
t-315 -106.5h-526l6 690l-6 705h502q185 0 289 -92t104 -256q0 -111 -62 -199.5t-190 -132.5q64 -12 117 -35.5t98 -61t70.5 -95.5t25.5 -132z" />
    <glyph glyph-name="C" unicode="C" horiz-adv-x="1304" 
d="M1171 1362v-191q-173 62 -366 62q-264 0 -395 -145.5t-131 -403.5q0 -239 125 -380t376 -140q214 0 420 92v-190q-189 -84 -422 -84q-320 0 -500 180t-180 500q0 179 54.5 323t151.5 237.5t227.5 143t285.5 49.5q186 0 354 -53z" />
    <glyph glyph-name="D" unicode="D" horiz-adv-x="1421" 
d="M639 180q252 0 379 138.5t127 398.5q0 240 -118.5 368.5t-362.5 128.5q-136 0 -324 -8l2 -1022q164 -4 297 -4zM162 0l6 690l-6 705q344 4 510 4q304 0 477.5 -167.5t173.5 -486.5q0 -182 -53.5 -326.5t-147.5 -235.5t-217.5 -139t-267.5 -48q-185 0 -475 4z" />
    <glyph glyph-name="E" unicode="E" horiz-adv-x="1134" 
d="M993 1214h-653v-421h625v-170h-625v-443h674v-180h-852l6 690l-6 705h831v-181z" />
    <glyph glyph-name="F" unicode="F" horiz-adv-x="1081" 
d="M985 1214h-641v-456h610v-172h-610l6 -586h-184l6 690l-6 705h819v-181z" />
    <glyph glyph-name="G" unicode="G" horiz-adv-x="1419" 
d="M741 162q201 0 314.5 106.5t124.5 286.5h-447v180h588q8 -76 8 -155q0 -274 -163 -436t-429 -162q-293 0 -466 184.5t-173 495.5q0 174 53.5 317.5t147.5 238t221.5 146t274.5 51.5q113 0 197.5 -13.5t181.5 -45.5v-195q-177 72 -388 72q-254 0 -380.5 -145.5
t-126.5 -399.5q0 -114 29 -209.5t85 -166.5t145 -110.5t203 -39.5z" />
    <glyph glyph-name="H" unicode="H" horiz-adv-x="1439" 
d="M1278 1395l-6 -705l6 -690h-178l6 629h-772l6 -629h-178l6 690l-6 705h178l-6 -588h772l-6 588h178z" />
    <glyph glyph-name="I" unicode="I" horiz-adv-x="501" 
d="M340 1395l-6 -705l6 -690h-178l6 690l-6 705h178z" />
    <glyph glyph-name="J" unicode="J" horiz-adv-x="577" 
d="M403 412q4 -114 -3 -207t-21 -161.5t-40 -123.5t-54 -91.5t-69 -66t-79 -48t-90 -36.5l-45 170q146 56 195.5 172.5t44.5 380.5l-11 994h181z" />
    <glyph glyph-name="K" unicode="K" horiz-adv-x="1284" 
d="M414 715v12l598 668h225v-11l-631 -661l672 -713v-10h-225zM354 1395l-6 -705l6 -690h-178l6 690l-6 705h178z" />
    <glyph glyph-name="L" unicode="L" horiz-adv-x="1015" 
d="M340 1395l-6 -705l4 -510h627v-180h-803l6 690l-6 705h178z" />
    <glyph glyph-name="M" unicode="M" horiz-adv-x="1890" 
d="M1573 0l-133 1008l-461 -1018h-70l-483 1014l-109 -1004h-190l209 1419h63l555 -1108l516 1108h74l219 -1419h-190z" />
    <glyph glyph-name="N" unicode="N" horiz-adv-x="1431" 
d="M1198 -16l-866 1038l4 -1022h-174l4 1397h67l875 -1047l-12 1045h176l-8 -1411h-66z" />
    <glyph glyph-name="O" unicode="O" horiz-adv-x="1499" 
d="M750 1235q-231 0 -352.5 -147.5t-121.5 -401.5q0 -238 119.5 -381t349.5 -143q158 1 266.5 70t160 190.5t51.5 288.5q0 239 -120 381.5t-353 142.5zM768 1415q290 0 461.5 -182.5t171.5 -499.5q0 -178 -53 -322.5t-144.5 -237t-212 -142t-258.5 -49.5
q-290 0 -462.5 182.5t-172.5 499.5q0 178 53 322.5t145 237t213 142t259 49.5z" />
    <glyph glyph-name="P" unicode="P" horiz-adv-x="1159" 
d="M670 717q119 0 182 58.5t63 170.5q0 129 -62.5 202t-211.5 73q-127 0 -303 -4l-4 -498q84 -2 336 -2zM627 545q-166 0 -291 8l4 -553h-178l6 690l-6 705h477q218 0 334.5 -104.5t116.5 -299.5q0 -112 -41 -200t-108.5 -140.5t-147.5 -79t-166 -26.5z" />
    <glyph glyph-name="Q" unicode="Q" horiz-adv-x="1505" 
d="M1223 711q0 239 -120 381.5t-353 142.5q-231 0 -352.5 -147.5t-121.5 -401.5q0 -238 119.5 -381t349.5 -143q163 0 271 63l-205 219l125 117l197 -227q90 136 90 377zM98 664q0 178 53 322.5t145 237t213 142t259 49.5q290 0 461.5 -182.5t171.5 -499.5q0 -309 -166 -516
l246 -264l-129 -121l-232 274q-168 -124 -387 -124q-290 0 -462.5 182.5t-172.5 499.5z" />
    <glyph glyph-name="R" unicode="R" horiz-adv-x="1265" 
d="M653 762q118 0 185 54.5t67 164.5q0 240 -284 240q-119 0 -283 -4l-4 -453q27 0 133.5 -1t185.5 -1zM1028 0l-416 598q-166 0 -278 8l6 -606h-178l6 690l-6 705h469q218 0 333 -95.5t115 -275.5q0 -157 -82 -258.5t-213 -142.5l459 -613v-10h-215z" />
    <glyph glyph-name="S" unicode="S" horiz-adv-x="1093" 
d="M291 1018q0 -41 14 -72.5t36.5 -52.5t66 -40t86 -32t114.5 -30q95 -24 162.5 -54.5t119 -75t76.5 -106.5t25 -143q0 -197 -135.5 -314.5t-359.5 -117.5q-103 0 -209.5 26t-188.5 68v194q205 -110 432 -110q142 0 217.5 62.5t75.5 168.5q0 90 -67 141.5t-207 87.5
q-224 57 -324 138.5t-100 236.5q0 129 66 226t176 146.5t247 49.5q150 0 299 -57v-201q-57 35 -140 56.5t-169 21.5q-157 0 -235 -59t-78 -158z" />
    <glyph glyph-name="T" unicode="T" horiz-adv-x="1128" 
d="M74 1395h981v-181h-410l10 -1214h-184l10 1214h-407v181z" />
    <glyph glyph-name="U" unicode="U" horiz-adv-x="1396" 
d="M1069 635l-8 760h178l-6 -752q2 -141 -23 -253t-72 -188t-116 -125.5t-150.5 -72t-179.5 -22.5q-103 0 -184 21t-147.5 68.5t-110 122.5t-66 185.5t-20.5 255.5l-6 760h178l-6 -746q0 -255 92 -371t285 -114q180 0 271 114.5t91 356.5z" />
    <glyph glyph-name="V" unicode="V" horiz-adv-x="1298" 
d="M664 -29h-27l-643 1424h203l467 -1102l440 1102h201z" />
    <glyph glyph-name="W" unicode="W" horiz-adv-x="1910" 
d="M1374 -23l-420 1076l-419 -1076h-43l-498 1418h199l339 -1047l398 1059h45l428 -1065l323 1053h189l-494 -1418h-47z" />
    <glyph glyph-name="X" unicode="X" horiz-adv-x="1370" 
d="M1106 0l-422 627l-420 -627h-225v12l534 707l-501 663v13h223l393 -580l389 580h223v-13l-503 -663l536 -707v-12h-227z" />
    <glyph glyph-name="Y" unicode="Y" horiz-adv-x="1273" 
d="M733 0h-182l6 537l-543 847v11h207l426 -727l404 727h211v-11l-539 -835z" />
    <glyph glyph-name="Z" unicode="Z" horiz-adv-x="1337" 
d="M1251 0h-1192l-8 18l871 1196h-785v181h1106l6 -17l-870 -1198h872v-180z" />
    <glyph glyph-name="a" unicode="a" horiz-adv-x="1144" 
d="M821 639q0 136 -61.5 203t-202.5 67q-156 0 -377 -86v185q193 73 385 73q122 0 205 -28t130.5 -87t67.5 -138.5t21 -194.5l6 -633h-155l-13 160q-88 -81 -186.5 -129.5t-230.5 -48.5q-138 0 -218.5 75t-80.5 207q0 143 93 217t236 74l381 2v82zM471 152q164 0 350 104
v188l-358 -16q-89 -4 -132.5 -42t-43.5 -97q0 -67 43 -102t141 -35z" />
    <glyph glyph-name="b" unicode="b" horiz-adv-x="1220" 
d="M641 903q-143 0 -305 -96l8 -639q132 -11 242 -8q182 3 267 104t85 268q0 371 -297 371zM553 -18q-164 0 -391 71l8 744l-14 725h180v-611q80 79 168 125.5t203 46.5q186 0 290.5 -135.5t104.5 -388.5q0 -146 -42.5 -258t-118 -181t-173.5 -103.5t-215 -34.5z" />
    <glyph glyph-name="c" unicode="c" horiz-adv-x="1060" 
d="M934 1040v-186q-121 57 -285 57q-184 0 -285.5 -100.5t-101.5 -271.5q0 -173 99 -280t284 -107q156 0 299 59v-178q-125 -51 -301 -51q-255 0 -400 142t-145 390q0 268 156 417.5t412 149.5q159 0 268 -41z" />
    <glyph glyph-name="d" unicode="d" 
d="M561 162q60 0 123.5 17.5t101.5 36t88 46.5l5 580l-2 49q-145 19 -259 16q-181 -3 -267.5 -104.5t-86.5 -270.5q0 -370 297 -370zM1044 864l11 -864h-166l-10 164q-84 -82 -174 -131t-209 -49q-184 0 -289 134.5t-105 387.5q0 145 42 257t117 181t173.5 104t216.5 35
q109 0 223 -26l-10 465h180v-658z" />
    <glyph glyph-name="e" unicode="e" horiz-adv-x="1134" 
d="M588 909q-274 0 -314 -252l611 7q-7 124 -85 184.5t-212 60.5zM989 227v-178q-158 -67 -348 -67q-257 0 -399 143.5t-142 400.5q0 140 43.5 249t117 173.5t164.5 97.5t193 33q414 0 414 -438q0 -47 -6 -100l-760 4q3 -186 95.5 -289.5t281.5 -103.5t346 75z" />
    <glyph glyph-name="f" unicode="f" horiz-adv-x="804" 
d="M397 1096v-31h355v-170h-353l11 -895h-177l5 895h-168v170h170v25q2 224 91.5 336t293.5 112q59 0 127 -10v-174q-82 10 -148 10q-210 0 -207 -268z" />
    <glyph glyph-name="g" unicode="g" horiz-adv-x="1120" 
d="M545 924q-132 0 -202.5 -59.5t-70.5 -166.5q0 -102 72.5 -160.5t208.5 -58.5q133 0 202.5 59t69.5 169q0 102 -71 159.5t-209 57.5zM559 -201q361 0 361 146q0 78 -117 78q-20 0 -197 -1.5t-276 -1.5q-40 0 -70 9q-59 -69 -59 -121q0 -58 81 -83.5t277 -25.5zM1081 -57
q0 -89 -35 -151t-105 -98t-163.5 -51.5t-222.5 -15.5q-272 0 -394 44.5t-122 148.5q0 109 158 239q-45 36 -45 93q0 101 141 235q-84 45 -130 122.5t-46 180.5q0 124 60 215t157.5 135.5t218.5 44.5q144 0 254 -55q82 112 203 250l127 -141q-126 -83 -240 -178
q86 -89 86 -230q0 -126 -60.5 -218t-158.5 -136.5t-219 -44.5q-81 0 -166 20q-62 -90 -62 -133q0 -21 16 -34t46 -13q46 0 208 5t214 5q280 0 280 -239z" />
    <glyph glyph-name="h" unicode="h" horiz-adv-x="1230" 
d="M684 901q-164 0 -348 -98l10 -803h-182l4 834l-12 688h180v-615q208 176 420 176q156 0 239 -88t86 -297l6 -698h-184l4 664q1 71 -13.5 119t-45.5 73t-69.5 35t-94.5 10z" />
    <glyph glyph-name="i" unicode="i" horiz-adv-x="503" 
d="M250 1487q59 0 93 -30.5t34 -82.5q0 -60 -37 -93.5t-92 -33.5q-59 0 -94 30t-35 83q0 59 38 93t93 34zM334 831l12 -831h-182v799l-8 266h178v-234z" />
    <glyph glyph-name="j" unicode="j" horiz-adv-x="491" 
d="M246 1487q60 0 94.5 -30t34.5 -83q0 -61 -37 -94t-94 -33q-58 0 -92.5 30t-34.5 83q0 59 37 93t92 34zM342 102q2 -90 -10 -163t-37 -124t-55.5 -89t-73 -63.5t-82 -41t-90.5 -27.5l-41 164q87 27 131.5 63.5t63 96t18.5 164.5v731l-8 252h178v-457z" />
    <glyph glyph-name="k" unicode="k" horiz-adv-x="1148" 
d="M399 547v8l480 510h223v-10l-508 -504l536 -541v-10h-233zM348 860l10 -860h-184l6 838l-12 684h180v-662z" />
    <glyph glyph-name="l" unicode="l" horiz-adv-x="503" 
d="M336 860l10 -860h-184l6 838l-12 684h180v-662z" />
    <glyph glyph-name="m" unicode="m" horiz-adv-x="1902" 
d="M651 901q-138 0 -317 -98l12 -803h-182v799l-8 266h161l13 -162q200 180 393 180q115 0 189 -45t108 -149q206 194 412 194q155 0 237.5 -88t83.5 -297l6 -698h-184l6 664q1 71 -13.5 119t-45.5 73t-69 35t-93 10q-137 0 -320 -100q7 -54 7 -101l6 -700h-185l4 666
q1 72 -13.5 119t-45 72t-68.5 34.5t-94 9.5z" />
    <glyph glyph-name="n" unicode="n" horiz-adv-x="1230" 
d="M684 901q-162 0 -350 -98l12 -803h-182v799l-8 266h161l13 -164q210 182 426 182q156 0 239 -88t86 -297l6 -698h-184l4 664q1 71 -13.5 119t-45.5 73t-69.5 35t-94.5 10z" />
    <glyph glyph-name="o" unicode="o" horiz-adv-x="1236" 
d="M614 909q-172 0 -260 -98.5t-88 -278.5q0 -179 89.5 -279.5t269.5 -100.5q171 0 259.5 100t88.5 283q0 176 -90 275t-269 99zM625 1081q238 0 376 -141t138 -383q0 -136 -41 -246t-112.5 -181.5t-167 -109.5t-206.5 -38q-236 0 -374 141.5t-138 384.5q0 135 41 244.5
t112.5 181t166.5 109.5t205 38z" />
    <glyph glyph-name="p" unicode="p" horiz-adv-x="1210" 
d="M332 713l8 -541q116 -17 266 -14q90 2 157 31.5t106.5 81t59 117.5t19.5 147q0 173 -71.5 269.5t-223.5 96.5t-321 -106v-82zM575 -18q-130 0 -233 28l4 -360h-182v1149l-8 266h174v-166q57 55 103.5 90.5t124 64.5t163.5 29q179 0 284 -135t105 -389q0 -140 -41 -250.5
t-113 -181.5t-169 -108t-212 -37z" />
    <glyph glyph-name="q" unicode="q" 
d="M567 152q138 0 307 98v639q-141 24 -276 24q-86 -1 -152 -32.5t-105 -86t-58 -122t-19 -146.5t17 -144.5t52 -118t94.5 -82t139.5 -29.5zM1049 -350h-179l4 500q-82 -78 -169 -123t-207 -45q-180 0 -288 131.5t-108 384.5q0 147 38.5 261t106 183.5t154 105t187.5 35.5
q155 0 309 -71l127 67l27 -14l-7 -418z" />
    <glyph glyph-name="r" unicode="r" horiz-adv-x="780" 
d="M727 1081v-192q-236 0 -393 -88l12 -801h-182v799l-8 266h172l4 -158q186 174 352 174h43z" />
    <glyph glyph-name="s" unicode="s" horiz-adv-x="985" 
d="M287 768q0 -66 60.5 -100.5t193.5 -59.5q63 -13 107.5 -25.5t94 -36t80 -53.5t50.5 -77t20 -107q0 -160 -113 -244.5t-284 -84.5q-197 0 -371 59v186q108 -36 191 -52.5t200 -16.5q219 0 219 133q0 59 -54 92t-177 57q-75 16 -124.5 30.5t-102 39.5t-82 56t-49 80
t-19.5 112q0 105 55.5 181t140 111t185.5 35q167 0 317 -61v-193q-148 78 -323 78q-215 0 -215 -139z" />
    <glyph glyph-name="t" unicode="t" horiz-adv-x="843" 
d="M745 8q-91 -26 -188 -26q-177 0 -264 86.5t-86 273.5l6 553h-172v82l168 67l137 248h35l-4 -227h360v-170h-362v-545q0 -106 45 -151t141 -45q72 0 184 22v-168z" />
    <glyph glyph-name="u" unicode="u" horiz-adv-x="1230" 
d="M905 0l-12 164q-210 -182 -426 -182q-76 0 -133 19.5t-101 63t-67.5 119t-24.5 183.5l-6 698h184l-4 -664q-1 -71 14 -119t46 -73t69.5 -35t94.5 -10q166 0 350 100l-12 801h182v-799l8 -266h-162z" />
    <glyph glyph-name="v" unicode="v" horiz-adv-x="1058" 
d="M543 -25h-27l-520 1090h201l346 -784l321 784h199z" />
    <glyph glyph-name="w" unicode="w" horiz-adv-x="1644" 
d="M1178 -18l-353 745l-358 -745h-25l-448 1083h203l284 -760l324 762h41l354 -754l250 752h201l-449 -1083h-24z" />
    <glyph glyph-name="x" unicode="x" horiz-adv-x="1118" 
d="M866 0l-307 457l-307 -457h-213v10l410 543l-383 502v10h206l287 -422l287 422h207v-10l-383 -506l409 -539v-10h-213z" />
    <glyph glyph-name="y" unicode="y" horiz-adv-x="1064" 
d="M121 -389q-66 0 -101 8v168q29 -6 93 -6q195 0 346 293l-463 991h197l348 -799l323 799h205l-489 -1040q-97 -205 -205.5 -309.5t-253.5 -104.5z" />
    <glyph glyph-name="z" unicode="z" horiz-adv-x="1142" 
d="M1042 0h-966l-6 16l659 879h-584v170h883l6 -16l-657 -877h665v-172z" />
    <glyph glyph-name="uni00A0" unicode="&#xa0;" horiz-adv-x="491" 
 />
  </font>
</defs>
</svg>
