<?xml version="1.0" standalone="no"?>
<!DOCTYPE svg PUBLIC "-//W3C//DTD SVG 1.1//EN" "http://www.w3.org/Graphics/SVG/1.1/DTD/svg11.dtd" >
<svg xmlns="http://www.w3.org/2000/svg" xmlns:xlink="http://www.w3.org/1999/xlink" version="1.1">
<metadata>
Created by FontForge 20170731 at Thu Sep 14 15:15:03 2023
 By Aleksey,,,
(c) Copyright OH no Type Company, LLC. 2021. All rights reserved.
</metadata>
<defs>
<font id="RetailDemo-Semibold" horiz-adv-x="1292" >
  <font-face 
    font-family="Retail Demo Semibold"
    font-weight="600"
    font-stretch="normal"
    units-per-em="2048"
    panose-1="4 4 6 6 6 3 3 4 3 5"
    ascent="1475"
    descent="-573"
    x-height="1073"
    cap-height="1395"
    bbox="-49 -408 1903 1540"
    underline-thickness="102"
    underline-position="-388"
    unicode-range="U+0020-00A0"
  />
<missing-glyph horiz-adv-x="1751" 
d="M745 31q37 0 69.5 1.5t52.5 3t51.5 7t42.5 7.5t51 10.5t53 11.5q0 180 40 303.5t95 181.5l43 -41q-33 -68 -69 -229q85 49 141.5 115t88.5 163.5t32 222.5q0 262 -132.5 396.5t-398.5 134.5q-216 0 -349.5 -107t-160.5 -282q10 2 35 2q106 0 157.5 -64.5t51.5 -156.5
q0 -56 -21.5 -101t-56 -71t-73.5 -39t-78 -13h-19q3 -89 5.5 -215.5t4.5 -175.5q144 -65 344 -65zM745 -68q-280 0 -426 131q-10 269 15 439q-59 22 -95 76.5t-36 128.5q0 69 33.5 123.5t93.5 80.5q6 217 161 353.5t420 136.5q300 0 454.5 -157.5t154.5 -446.5
q0 -213 -89.5 -370.5t-275.5 -223.5q-25 -139 -25 -185q-138 -86 -385 -86zM932 936q109 0 167 -64t58 -155q0 -104 -73.5 -176t-168.5 -72q-96 0 -159.5 64t-63.5 172q0 93 62.5 162t177.5 69z" />
    <glyph glyph-name=".notdef" horiz-adv-x="1751" 
d="M745 31q37 0 69.5 1.5t52.5 3t51.5 7t42.5 7.5t51 10.5t53 11.5q0 180 40 303.5t95 181.5l43 -41q-33 -68 -69 -229q85 49 141.5 115t88.5 163.5t32 222.5q0 262 -132.5 396.5t-398.5 134.5q-216 0 -349.5 -107t-160.5 -282q10 2 35 2q106 0 157.5 -64.5t51.5 -156.5
q0 -56 -21.5 -101t-56 -71t-73.5 -39t-78 -13h-19q3 -89 5.5 -215.5t4.5 -175.5q144 -65 344 -65zM745 -68q-280 0 -426 131q-10 269 15 439q-59 22 -95 76.5t-36 128.5q0 69 33.5 123.5t93.5 80.5q6 217 161 353.5t420 136.5q300 0 454.5 -157.5t154.5 -446.5
q0 -213 -89.5 -370.5t-275.5 -223.5q-25 -139 -25 -185q-138 -86 -385 -86zM932 936q109 0 167 -64t58 -155q0 -104 -73.5 -176t-168.5 -72q-96 0 -159.5 64t-63.5 172q0 93 62.5 162t177.5 69z" />
    <glyph glyph-name=".null" horiz-adv-x="0" 
 />
    <glyph glyph-name="nonmarkingreturn" horiz-adv-x="682" 
 />
    <glyph glyph-name="space" unicode=" " horiz-adv-x="491" 
 />
    <glyph glyph-name="comma" unicode="," horiz-adv-x="516" 
d="M35 -287l121 621l286 -33l-260 -604z" />
    <glyph glyph-name="period" unicode="." horiz-adv-x="516" 
d="M256 -18q-77 0 -123.5 43t-46.5 116q0 84 49.5 131t122.5 47q77 0 124.5 -43t47.5 -116q0 -83 -50.5 -130.5t-123.5 -47.5z" />
    <glyph glyph-name="zero" unicode="0" horiz-adv-x="1345" 
d="M674 1178q-176 0 -264 -128.5t-88 -363.5q0 -219 86 -343t262 -124q178 0 267 129t89 363q0 219 -88 343t-264 124zM690 1417q267 0 419.5 -179t152.5 -503q0 -184 -47.5 -330t-130.5 -237.5t-191.5 -139.5t-233.5 -48q-267 0 -420 179.5t-153 504.5q0 183 47.5 328.5
t130.5 237t191.5 139.5t234.5 48z" />
    <glyph glyph-name="one" unicode="1" horiz-adv-x="600" 
d="M436 733l8 -733h-235l2 1092l-174 65v23l385 239h20z" />
    <glyph glyph-name="two" unicode="2" horiz-adv-x="1136" 
d="M43 0l-8 18l383 404q69 72 103 108t83 91t71.5 89t47.5 77.5t34 82t9 78.5q0 236 -268 236q-175 0 -381 -90v254q191 71 411 71q243 0 363.5 -103t120.5 -312q0 -62 -16 -123.5t-49.5 -122.5t-69 -113.5t-93 -115t-102.5 -108t-113 -110.5l-80 -73h566v-238h-1012z" />
    <glyph glyph-name="three" unicode="3" horiz-adv-x="1155" 
d="M84 -14v233q389 0 566 57.5t177 178.5q0 70 -59.5 112.5t-181.5 42.5q-111 0 -254 -14l-4 188q115 17 199.5 38t135.5 43t81.5 49.5t41.5 54t11 59.5q0 84 -61 122t-193 38q-230 0 -422 -82v237q198 76 444 76q467 0 467 -329q0 -53 -19.5 -102.5t-59.5 -95t-110.5 -82.5
t-164.5 -60q371 -17 371 -316q0 -232 -235 -340t-730 -108z" />
    <glyph glyph-name="four" unicode="4" horiz-adv-x="1241" 
d="M350 1397l240 -2l-273 -811l443 4l4 678h223l2 -674l199 4v-236l-199 5l2 -365h-235l2 367l-717 -5z" />
    <glyph glyph-name="five" unicode="5" horiz-adv-x="1126" 
d="M981 1395v-236h-616l2 -368q147 26 288 26q97 0 169.5 -19.5t115.5 -50.5t69 -77.5t35 -93t9 -103.5q0 -248 -239 -367.5t-730 -119.5v233q393 0 570 63t177 191q0 75 -56.5 114.5t-192.5 39.5q-150 0 -424 -29v797h823z" />
    <glyph glyph-name="six" unicode="6" horiz-adv-x="1222" 
d="M631 213q278 0 278 256q0 238 -258 238q-199 0 -342 -95q-2 -18 -2 -61q0 -152 81 -245t243 -93zM614 -20q-242 0 -386 147.5t-144 421.5q0 198 72.5 360.5t198 269t292 166.5t357.5 66v-244q-95 -7 -176 -21.5t-166 -47t-148.5 -79.5t-114 -123t-73.5 -173
q90 76 200.5 115t216.5 39q177 0 284.5 -97t107.5 -291q0 -105 -29.5 -191t-79.5 -144t-117.5 -98t-141.5 -58t-153 -18z" />
    <glyph glyph-name="seven" unicode="7" horiz-adv-x="1034" 
d="M485 0h-276l504 1159h-686v236h989l4 -19z" />
    <glyph glyph-name="eight" unicode="8" horiz-adv-x="1175" 
d="M629 795q11 -2 31 -7.5t28 -7.5q77 61 117.5 120t40.5 128q0 82 -68.5 122t-177.5 40q-121 0 -186.5 -49.5t-65.5 -128.5q0 -89 68 -136.5t213 -80.5zM567 -20q-228 0 -363.5 94t-135.5 248q0 112 75 198t217 166q-116 53 -174.5 132t-58.5 196q0 182 139 292.5
t348 110.5q212 0 331.5 -91.5t119.5 -246.5q0 -188 -262 -331q147 -50 229 -133t82 -216q0 -124 -72 -220.5t-196 -147.5t-279 -51zM600 211q139 0 214 48.5t75 137.5q0 83 -70.5 131t-210.5 80q-85 19 -151 41q-154 -119 -154 -254q0 -63 42.5 -105.5t107 -60.5t147.5 -18z
" />
    <glyph glyph-name="nine" unicode="9" horiz-adv-x="1214" 
d="M571 700q192 0 334 93q2 18 2 55q0 152 -79.5 245t-241.5 93q-139 0 -210 -65t-71 -185q0 -236 266 -236zM193 -12v243q99 7 182.5 21.5t171.5 47.5t153.5 81t117 125t73.5 176q-91 -75 -200 -113.5t-216 -38.5q-178 0 -286.5 97.5t-108.5 290.5q0 123 42.5 221t115 158
t165 91t197.5 31q245 0 389 -147.5t144 -421.5q0 -198 -74 -360.5t-203 -269t-298.5 -166.5t-364.5 -66z" />
    <glyph glyph-name="A" unicode="A" horiz-adv-x="1333" 
d="M709 1421l634 -1421h-264l-123 303h-589l-119 -303h-258l639 1421h80zM872 508l-219 534l-209 -534h428z" />
    <glyph glyph-name="B" unicode="B" horiz-adv-x="1198" 
d="M645 225q256 0 256 209q0 102 -67.5 143t-184.5 41q-180 0 -274 -2v-387q168 -4 270 -4zM635 797q111 0 168 51.5t57 146.5q0 86 -52 130t-177 44q-172 0 -256 -2v-370h260zM1133 391q0 -178 -114 -284.5t-321 -106.5h-553l7 690l-7 705h535q185 0 289 -91t104 -253
q0 -110 -60.5 -198.5t-187.5 -135.5q136 -30 222 -108.5t86 -217.5z" />
    <glyph glyph-name="C" unicode="C" 
d="M1171 1360v-248q-170 66 -362 66q-241 0 -363 -131t-122 -361q0 -216 115 -342t347 -125q206 0 410 96v-245q-185 -90 -424 -90q-321 0 -503.5 180.5t-182.5 501.5q0 182 55.5 327t154 237t229 140.5t284.5 48.5q194 0 362 -55z" />
    <glyph glyph-name="D" unicode="D" horiz-adv-x="1419" 
d="M647 236q227 0 341 124.5t114 356.5q0 212 -106.5 326t-323.5 114q-113 0 -297 -8l2 -907q234 -6 270 -6zM145 0l7 690l-7 705q528 6 537 6q304 0 478.5 -169t174.5 -487q0 -182 -54 -326.5t-149 -235.5t-218.5 -139t-266.5 -48q-202 0 -502 4z" />
    <glyph glyph-name="E" unicode="E" horiz-adv-x="1134" 
d="M1004 1163h-627v-356h596v-201h-596v-375h645v-231h-877l7 690l-7 705h859v-232z" />
    <glyph glyph-name="F" unicode="F" horiz-adv-x="1083" 
d="M989 1163h-608v-399h580v-217h-578l4 -547h-237l6 690l-6 705h839v-232z" />
    <glyph glyph-name="G" unicode="G" horiz-adv-x="1413" 
d="M739 215q179 0 281.5 89t114.5 243h-404v209h594q8 -81 8 -178q0 -279 -164.5 -438.5t-433.5 -159.5q-298 0 -473.5 184t-175.5 498q0 177 55.5 321.5t152 238t225.5 143.5t278 50q118 0 206 -14t189 -47v-250q-191 76 -397 76q-235 0 -353 -132t-118 -362
q0 -211 106.5 -341t308.5 -130z" />
    <glyph glyph-name="H" unicode="H" horiz-adv-x="1437" 
d="M1292 1395l-6 -705l6 -690h-235l6 600h-688l6 -600h-236l7 690l-7 705h236l-4 -566h684l-4 566h235z" />
    <glyph glyph-name="I" unicode="I" horiz-adv-x="526" 
d="M381 1395l-6 -705l6 -690h-236l7 690l-7 705h236z" />
    <glyph glyph-name="J" unicode="J" horiz-adv-x="598" 
d="M438 442q5 -117 -1.5 -212t-21.5 -165t-42.5 -126t-57.5 -93.5t-74 -68t-85 -50t-97 -38.5l-59 215q70 28 113 66t67.5 101.5t32.5 146t6 212.5l-8 965h235z" />
    <glyph glyph-name="K" unicode="K" 
d="M426 715v12l543 668h286v-11l-583 -661l622 -713v-10h-284zM393 1395l-6 -705l6 -690h-235l6 690l-6 705h235z" />
    <glyph glyph-name="L" unicode="L" horiz-adv-x="1013" 
d="M381 1395l-6 -705l4 -459h588v-231h-822l7 690l-7 705h236z" />
    <glyph glyph-name="M" unicode="M" horiz-adv-x="1873" 
d="M1509 0l-96 950l-440 -962h-68l-463 958l-75 -946h-252l188 1415h148l501 -1001l461 1001h152l196 -1415h-252z" />
    <glyph glyph-name="N" unicode="N" horiz-adv-x="1429" 
d="M1210 -16l-843 934l6 -918h-228l7 1401h67l850 -946l-12 940h227l-6 -1411h-68z" />
    <glyph glyph-name="O" unicode="O" horiz-adv-x="1507" 
d="M754 1178q-211 0 -323 -132t-112 -360q0 -213 109.5 -340t321.5 -127q213 0 324.5 131.5t111.5 360.5q0 212 -110.5 339.5t-321.5 127.5zM770 1417q298 0 474.5 -181.5t176.5 -500.5q0 -181 -54.5 -327t-149 -238t-217 -141t-261.5 -49q-299 0 -476 181.5t-177 502.5
q0 146 35.5 269t99 211.5t149.5 150.5t187 92t213 30z" />
    <glyph glyph-name="P" unicode="P" horiz-adv-x="1175" 
d="M664 719q109 0 167 51.5t58 153.5q0 115 -57 179t-193 64q-40 0 -130 -1t-130 -1l-4 -444q74 -2 289 -2zM637 504q-140 0 -260 6l4 -510h-236l7 690l-7 705h508q219 0 341 -110t122 -310q0 -118 -42 -211t-111.5 -148t-152.5 -83.5t-173 -28.5z" />
    <glyph glyph-name="Q" unicode="Q" horiz-adv-x="1509" 
d="M1186 711q0 212 -110.5 339.5t-323.5 127.5q-211 0 -322 -132t-111 -360q0 -212 110 -339.5t321 -127.5q137 0 229 47l-203 217l144 133l194 -227q72 120 72 322zM84 664q0 181 55 326.5t150 237.5t218 140.5t263 48.5q298 0 474.5 -180.5t176.5 -499.5q0 -291 -166 -501
l234 -238l-168 -158l-205 262q-175 -122 -387 -122q-293 0 -469 182t-176 502z" />
    <glyph glyph-name="R" unicode="R" horiz-adv-x="1273" 
d="M662 764q104 0 163.5 48t59.5 144q0 100 -57.5 156.5t-194.5 56.5q-102 0 -254 -4l-4 -399q26 0 122 -1t165 -1zM985 0l-367 563q-133 0 -241 6l4 -569h-236l7 690l-7 705h510q224 0 341.5 -100t117.5 -285q0 -156 -74.5 -259.5t-199.5 -150.5l422 -590v-10h-277z" />
    <glyph glyph-name="S" unicode="S" horiz-adv-x="1112" 
d="M332 999q0 -35 12 -61t31 -44t57 -33.5t75.5 -26t100.5 -25.5q206 -39 310 -127.5t104 -255.5q0 -210 -144 -328t-376 -118q-223 0 -410 86v253q111 -51 214 -78.5t226 -27.5q130 0 197.5 52.5t67.5 142.5q0 74 -58 117t-176 69q-240 50 -346 133.5t-106 251.5
q0 137 70.5 238t185.5 150.5t258 49.5q160 0 321 -59v-258q-146 82 -336 82q-140 0 -209 -49.5t-69 -133.5z" />
    <glyph glyph-name="T" unicode="T" horiz-adv-x="1130" 
d="M68 1395h995v-236h-385l8 -1159h-242l9 1159h-385v236z" />
    <glyph glyph-name="U" unicode="U" horiz-adv-x="1406" 
d="M1038 643l-8 752h236l-6 -744q2 -177 -37 -308.5t-115 -210.5t-178.5 -117t-233.5 -38q-277 0 -415 157t-134 507l-6 754h238l-8 -742q1 -227 83.5 -331.5t256.5 -102.5q165 0 246 104.5t81 319.5z" />
    <glyph glyph-name="V" unicode="V" horiz-adv-x="1327" 
d="M702 -27h-79l-635 1422h264l428 -1037l401 1037h260z" />
    <glyph glyph-name="W" unicode="W" horiz-adv-x="1894" 
d="M1343 -20l-401 976l-389 -976h-94l-467 1415h254l289 -946l389 958h45l415 -963l271 951h248l-465 -1415h-95z" />
    <glyph glyph-name="X" unicode="X" horiz-adv-x="1370" 
d="M1057 0l-377 608l-369 -608h-288v12l499 705l-467 665v13h289l346 -566l340 566h285v-13l-467 -665l500 -705v-12h-291z" />
    <glyph glyph-name="Y" unicode="Y" 
d="M770 0h-238l7 528l-533 856v11h268l385 -690l361 690h266v-11l-526 -845z" />
    <glyph glyph-name="Z" unicode="Z" horiz-adv-x="1349" 
d="M1268 0h-1215l-6 20l799 1143h-711v232h1127l6 -19l-801 -1145h801v-231z" />
    <glyph glyph-name="a" unicode="a" horiz-adv-x="1157" 
d="M797 629q0 122 -57 181.5t-187 59.5q-168 0 -381 -82v234q200 70 395 70q129 0 216.5 -28.5t139 -88.5t73.5 -142t24 -200l6 -633h-199l-18 158q-89 -84 -189 -132.5t-229 -48.5q-135 0 -216 78t-81 215q0 148 96.5 224.5t249.5 76.5l357 2v56zM483 190q145 0 314 89v174
l-316 -17q-83 -4 -122.5 -38t-39.5 -87q0 -60 37.5 -90.5t126.5 -30.5z" />
    <glyph glyph-name="b" unicode="b" horiz-adv-x="1232" 
d="M639 862q-131 0 -266 -80l6 -567q120 -11 217 -8q162 3 238.5 92t76.5 236q0 327 -272 327zM575 -20q-189 0 -430 75l5 742l-13 725h236v-598q80 78 164 123t194 45q184 0 290.5 -138.5t106.5 -394.5q0 -146 -42.5 -258.5t-118.5 -181.5t-175 -104t-217 -35z" />
    <glyph glyph-name="c" unicode="c" horiz-adv-x="1026" 
d="M913 1055v-240q-113 53 -268 53q-164 0 -254 -87.5t-90 -239.5q0 -154 88 -246.5t254 -91.5q146 0 281 55v-229q-114 -49 -287 -49q-259 0 -406 141.5t-147 394.5q0 274 157.5 425t415.5 151q141 0 256 -37z" />
    <glyph glyph-name="d" unicode="d" horiz-adv-x="1222" 
d="M580 211q127 0 266 82l4 543v16q-121 17 -229 14q-83 -1 -145 -26t-98.5 -69.5t-54.5 -102.5t-18 -129q0 -328 275 -328zM1073 840l10 -840h-206l-19 162q-82 -84 -169.5 -133t-203.5 -49q-185 0 -291 137.5t-106 394.5q0 147 41.5 260.5t115 182.5t169 104t209.5 35
t223 -37l-8 465h235v-682z" />
    <glyph glyph-name="e" unicode="e" horiz-adv-x="1146" 
d="M592 879q-250 0 -285 -230l551 8q-7 112 -77.5 167t-188.5 55zM1014 274v-223q-166 -71 -371 -71q-264 0 -409.5 144.5t-145.5 405.5q0 141 44 251t120.5 176.5t171.5 100.5t203 34q428 0 428 -451q0 -55 -6 -117l-748 4q8 -159 94 -246t254 -87q200 0 365 79z" />
    <glyph glyph-name="f" unicode="f" horiz-adv-x="796" 
d="M434 1098v-25h318v-221h-316l8 -852h-231l4 852h-158v221h160v10q2 231 97 344t309 113q55 0 127 -10v-215q-75 10 -140 10q-181 0 -178 -227z" />
    <glyph glyph-name="g" unicode="g" horiz-adv-x="1128" 
d="M551 897q-121 0 -183.5 -52t-62.5 -149q0 -93 64.5 -144.5t189.5 -51.5q121 0 183.5 51.5t62.5 150.5q0 93 -64 144t-190 51zM555 -172q184 0 262 33t78 94q0 65 -100 65q-14 0 -193.5 -1t-290.5 -1q-27 0 -37 2q-41 -53 -41 -96q0 -53 71.5 -74.5t250.5 -21.5zM1102 -41
q0 -95 -37 -160.5t-112 -103.5t-174 -54t-236 -16q-273 0 -395.5 44.5t-122.5 150.5q0 112 157 233q-51 36 -51 97q0 103 152 235q-89 45 -137 123t-48 184q0 98 37 176t101 127t146.5 75t176.5 26q138 0 244 -45q85 141 182 260l160 -158q-131 -92 -230 -178
q95 -95 95 -240q0 -98 -36.5 -177t-100.5 -128.5t-146.5 -75.5t-177.5 -26q-87 0 -164 18q-47 -77 -47 -110q0 -19 14 -31t41 -12q41 0 202.5 5t219.5 5q287 0 287 -244z" />
    <glyph glyph-name="h" unicode="h" horiz-adv-x="1236" 
d="M674 858q-135 0 -299 -82l10 -776h-240l5 836l-13 686h240l-2 -600q196 170 401 170q73 0 129 -19t101.5 -62t70 -120t25.5 -186l6 -705h-242l4 647q1 121 -47 166t-149 45z" />
    <glyph glyph-name="i" unicode="i" horiz-adv-x="524" 
d="M258 1509q71 0 112.5 -35.5t41.5 -95.5q0 -71 -43.5 -110t-112.5 -39q-70 0 -112 35t-42 96q0 71 44 110t112 39zM371 817l14 -817h-240v805l-8 268h234v-256z" />
    <glyph glyph-name="j" unicode="j" horiz-adv-x="512" 
d="M256 1509q71 0 112.5 -35.5t41.5 -95.5q0 -71 -44 -110t-112 -39q-71 0 -112.5 35t-41.5 96q0 71 43.5 110t112.5 39zM379 121q2 -113 -18.5 -200t-53.5 -141t-87 -93.5t-104.5 -59t-119.5 -35.5l-45 218q117 34 156.5 91t39.5 191v721l-10 260h236v-461z" />
    <glyph glyph-name="k" unicode="k" horiz-adv-x="1167" 
d="M418 551v8l432 514h285v-10l-473 -508l503 -545v-10h-297zM383 850l10 -850h-237l4 844l-13 678h236v-672z" />
    <glyph glyph-name="l" unicode="l" horiz-adv-x="522" 
d="M373 850l10 -850h-238l5 844l-13 678h236v-672z" />
    <glyph glyph-name="m" unicode="m" horiz-adv-x="1890" 
d="M641 858q-116 0 -268 -80l12 -778h-240v805l-8 268h205l18 -160q195 179 383 179q229 0 295 -195q199 195 396 195q72 0 127.5 -19t100.5 -62t69.5 -120t25.5 -186l6 -705h-241l6 647q1 120 -47 165.5t-148 45.5q-120 0 -272 -82q4 -46 4 -71l6 -705h-240l5 647
q1 120 -47 165.5t-148 45.5z" />
    <glyph glyph-name="n" unicode="n" horiz-adv-x="1232" 
d="M672 858q-137 0 -301 -82l14 -776h-240v805l-10 268h207l18 -164q198 183 414 183q72 0 128 -19t101 -62t69.5 -120t25.5 -186l6 -705h-240l4 647q1 121 -47 166t-149 45z" />
    <glyph glyph-name="o" unicode="o" horiz-adv-x="1243" 
d="M618 868q-155 0 -234 -86.5t-79 -244.5q0 -159 80.5 -247t241.5 -87q153 0 232 87t79 249q0 155 -80.5 242t-239.5 87zM627 1092q245 0 387.5 -141.5t142.5 -389.5q0 -139 -42.5 -251t-116.5 -183t-172 -109t-210 -38q-244 0 -387 142t-143 390q0 138 43 249.5t117 183
t171.5 109.5t209.5 38z" />
    <glyph glyph-name="p" unicode="p" horiz-adv-x="1222" 
d="M369 711l6 -492q125 -17 239 -14q157 4 231.5 94t74.5 238q0 152 -65 238.5t-206 86.5q-129 0 -282 -92zM614 -20q-132 0 -235 36l4 -366h-236l-2 1110l-8 313h215l8 -168q40 41 74.5 70t82.5 58t105 44t121 15q180 0 287 -138t107 -395q0 -141 -40 -252.5t-111 -182
t-165.5 -107.5t-206.5 -37z" />
    <glyph glyph-name="q" unicode="q" horiz-adv-x="1224" 
d="M584 201q126 0 262 80v571q-131 21 -244 18q-77 -1 -135.5 -28t-93 -74.5t-51.5 -106.5t-17 -129t15 -128t47 -104.5t87.5 -72.5t129.5 -26zM1077 -350h-235l4 491q-79 -75 -163.5 -118t-197.5 -43q-180 0 -288.5 133.5t-108.5 390.5q0 149 38 264.5t105 185t152 105
t184 35.5q161 0 310 -80l176 76l26 -17l-6 -426z" />
    <glyph glyph-name="r" unicode="r" horiz-adv-x="792" 
d="M745 1090v-254q-235 0 -372 -74l14 -762h-242v805l-10 268h215l17 -180q157 199 333 199q6 0 22 -1t23 -1z" />
    <glyph glyph-name="s" unicode="s" horiz-adv-x="997" 
d="M315 760q0 -54 53 -83.5t167 -49.5q69 -10 121 -23t103.5 -36.5t84.5 -55t53.5 -80t20.5 -110.5q0 -86 -34 -153t-93.5 -107.5t-134 -61t-160.5 -20.5q-204 0 -387 57v231q115 -37 199.5 -53t207.5 -16q193 0 193 108q0 49 -45.5 76t-149.5 47q-68 12 -116 23.5t-97.5 29
t-82 40.5t-58.5 55t-38.5 75.5t-12.5 98.5q0 67 22.5 123.5t61.5 96t91.5 67t111.5 40.5t122 13q182 0 336 -62v-237q-154 81 -352 81q-187 0 -187 -114z" />
    <glyph glyph-name="t" unicode="t" horiz-adv-x="837" 
d="M748 8q-91 -26 -195 -26q-184 0 -275 89.5t-90 288.5l5 492h-156v117l160 75l168 263h53l-6 -234h329v-221h-331v-469q0 -97 40.5 -136.5t129.5 -39.5q56 0 168 20v-219z" />
    <glyph glyph-name="u" unicode="u" horiz-adv-x="1232" 
d="M883 0l-21 162q-199 -180 -411 -180q-73 0 -129 19t-101 62t-70 120t-26 186l-6 704h241l-6 -647q0 -121 49 -166t150 -45q135 0 299 82l-12 776h239v-792l8 -281h-204z" />
    <glyph glyph-name="v" unicode="v" horiz-adv-x="1083" 
d="M578 -25h-70l-518 1098h262l305 -725l283 725h256z" />
    <glyph glyph-name="w" unicode="w" horiz-adv-x="1624" 
d="M1149 -16l-340 678l-332 -678h-74l-413 1089h250l235 -684l320 690h41l344 -680l204 674h250l-415 -1089h-70z" />
    <glyph glyph-name="x" unicode="x" horiz-adv-x="1138" 
d="M842 0l-275 449l-272 -449h-268v10l387 543l-361 510v10h264l254 -414l250 414h262v-10l-358 -514l387 -539v-10h-270z" />
    <glyph glyph-name="y" unicode="y" horiz-adv-x="1089" 
d="M137 -389q-77 0 -112 10v221q29 -6 94 -6q98 0 178 62.5t152 179.5l-459 995h258l311 -743l281 743h260l-488 -1046q-97 -208 -210 -312t-265 -104z" />
    <glyph glyph-name="z" unicode="z" horiz-adv-x="1146" 
d="M1053 0h-985l-9 16l600 836h-520v221h908l6 -16l-600 -836h600v-221z" />
    <glyph glyph-name="uni00A0" unicode="&#xa0;" horiz-adv-x="491" 
 />
  </font>
</defs>
</svg>
