<?xml version="1.0" standalone="no"?>
<!DOCTYPE svg PUBLIC "-//W3C//DTD SVG 1.1//EN" "http://www.w3.org/Graphics/SVG/1.1/DTD/svg11.dtd" >
<svg xmlns="http://www.w3.org/2000/svg" xmlns:xlink="http://www.w3.org/1999/xlink" version="1.1">
<metadata>
Created by FontForge 20170731 at Thu Sep 14 15:15:03 2023
 By Aleksey,,,
(c) Copyright OH no Type Company, LLC. 2021. All rights reserved.
</metadata>
<defs>
<font id="RetailDemo-Bold" horiz-adv-x="575" >
  <font-face 
    font-family="Retail Demo"
    font-weight="700"
    font-stretch="normal"
    units-per-em="2048"
    panose-1="4 4 7 6 6 3 3 4 3 5"
    ascent="1475"
    descent="-573"
    x-height="1085"
    cap-height="1395"
    bbox="-45 -403 1884 1540"
    underline-thickness="102"
    underline-position="-388"
    unicode-range="U+0020-00A0"
  />
<missing-glyph horiz-adv-x="1751" 
d="M745 31q37 0 69.5 1.5t52.5 3t51.5 7t42.5 7.5t51 10.5t53 11.5q0 180 40 303.5t95 181.5l43 -41q-33 -68 -69 -229q85 49 141.5 115t88.5 163.5t32 222.5q0 262 -132.5 396.5t-398.5 134.5q-216 0 -349.5 -107t-160.5 -282q10 2 35 2q106 0 157.5 -64.5t51.5 -156.5
q0 -56 -21.5 -101t-56 -71t-73.5 -39t-78 -13h-19q3 -89 5.5 -215.5t4.5 -175.5q144 -65 344 -65zM745 -68q-280 0 -426 131q-10 269 15 439q-59 22 -95 76.5t-36 128.5q0 69 33.5 123.5t93.5 80.5q6 217 161 353.5t420 136.5q300 0 454.5 -157.5t154.5 -446.5
q0 -213 -89.5 -370.5t-275.5 -223.5q-25 -139 -25 -185q-138 -86 -385 -86zM932 936q109 0 167 -64t58 -155q0 -104 -73.5 -176t-168.5 -72q-96 0 -159.5 64t-63.5 172q0 93 62.5 162t177.5 69z" />
    <glyph glyph-name=".notdef" horiz-adv-x="1751" 
d="M745 31q37 0 69.5 1.5t52.5 3t51.5 7t42.5 7.5t51 10.5t53 11.5q0 180 40 303.5t95 181.5l43 -41q-33 -68 -69 -229q85 49 141.5 115t88.5 163.5t32 222.5q0 262 -132.5 396.5t-398.5 134.5q-216 0 -349.5 -107t-160.5 -282q10 2 35 2q106 0 157.5 -64.5t51.5 -156.5
q0 -56 -21.5 -101t-56 -71t-73.5 -39t-78 -13h-19q3 -89 5.5 -215.5t4.5 -175.5q144 -65 344 -65zM745 -68q-280 0 -426 131q-10 269 15 439q-59 22 -95 76.5t-36 128.5q0 69 33.5 123.5t93.5 80.5q6 217 161 353.5t420 136.5q300 0 454.5 -157.5t154.5 -446.5
q0 -213 -89.5 -370.5t-275.5 -223.5q-25 -139 -25 -185q-138 -86 -385 -86zM932 936q109 0 167 -64t58 -155q0 -104 -73.5 -176t-168.5 -72q-96 0 -159.5 64t-63.5 172q0 93 62.5 162t177.5 69z" />
    <glyph glyph-name=".null" horiz-adv-x="0" 
 />
    <glyph glyph-name="nonmarkingreturn" horiz-adv-x="682" 
 />
    <glyph glyph-name="space" unicode=" " horiz-adv-x="491" 
 />
    <glyph glyph-name="comma" unicode="," 
d="M31 -272l100 680l383 -25l-270 -678z" />
    <glyph glyph-name="period" unicode="." 
d="M285 -18q-96 0 -153.5 53.5t-57.5 146.5q0 106 61.5 166t153.5 60q96 0 154.5 -54.5t58.5 -146.5q0 -104 -63 -164.5t-154 -60.5z" />
    <glyph glyph-name="zero" unicode="0" horiz-adv-x="1355" 
d="M676 1087q-141 0 -214 -103.5t-73 -297.5q0 -180 72 -279.5t217 -99.5q143 1 216 105.5t73 298.5q0 180 -73.5 278t-217.5 98zM688 1419q281 0 441.5 -179.5t160.5 -506.5q0 -185 -49 -331t-134 -238.5t-197 -140.5t-242 -48q-280 0 -441 181.5t-161 509.5
q0 184 49 329.5t134.5 237t197 139t241.5 47.5z" />
    <glyph glyph-name="one" unicode="1" horiz-adv-x="638" 
d="M506 733l6 -733h-324l5 1044l-168 97v20l467 264h20z" />
    <glyph glyph-name="two" unicode="2" horiz-adv-x="1146" 
d="M43 0l-6 20l395 449q77 85 118 133t81 104.5t55.5 102t15.5 92.5q0 201 -229 201q-155 0 -371 -96v340q204 73 422 73q520 0 520 -422q0 -87 -31 -174.5t-90.5 -171.5t-124 -154.5t-151.5 -152.5l-22 -20h456v-324h-1038z" />
    <glyph glyph-name="three" unicode="3" horiz-adv-x="1159" 
d="M80 -16v313q187 0 321.5 14t212.5 40t114 61t36 80q0 53 -44 83.5t-138 30.5q-106 0 -273 -18l-8 207q182 23 281.5 52.5t130 60.5t30.5 77q0 64 -50 93.5t-158 29.5q-218 0 -418 -82v317q196 76 461 76q483 0 483 -336q0 -101 -76 -188.5t-240 -136.5
q98 -11 165.5 -41.5t102 -76.5t48.5 -93.5t14 -106.5q0 -232 -243 -344t-752 -112z" />
    <glyph glyph-name="four" unicode="4" horiz-adv-x="1253" 
d="M283 1399l321 -4l-213 -756l336 2l8 594h303l2 -588l168 4v-319l-166 2l2 -334h-325l4 336l-690 -2z" />
    <glyph glyph-name="five" unicode="5" horiz-adv-x="1150" 
d="M1024 1395v-318h-582l2 -280q123 30 263 30q110 0 187.5 -26t119.5 -74.5t60 -107t18 -134.5q0 -499 -1012 -499v313q197 0 335 15.5t212 44.5t105.5 64t31.5 81q0 59 -45.5 88t-147.5 29q-135 0 -415 -33l-2 807h870z" />
    <glyph glyph-name="six" unicode="6" horiz-adv-x="1230" 
d="M635 291q217 0 217 196q0 191 -207 191q-157 0 -264 -70v-26q0 -131 62.5 -211t191.5 -80zM618 -20q-258 0 -406.5 148t-148.5 419q0 201 74 363.5t205.5 270t309 167t388.5 65.5v-321q-138 -6 -240.5 -26t-187.5 -60t-138.5 -106.5t-76.5 -160.5q81 63 183 96t204 33
q175 0 275 -92.5t100 -281.5q0 -105 -30.5 -192t-82 -146t-121.5 -99t-147 -58.5t-160 -18.5z" />
    <glyph glyph-name="seven" unicode="7" horiz-adv-x="1064" 
d="M561 0h-385l461 1077h-598v318h1008l6 -23z" />
    <glyph glyph-name="eight" unicode="8" horiz-adv-x="1193" 
d="M639 811q47 -8 74 -14q108 94 108 186q0 67 -55.5 101t-149.5 34q-99 0 -153.5 -40.5t-54.5 -104.5q0 -68 54.5 -103.5t176.5 -58.5zM575 -20q-241 0 -381.5 94t-140.5 252q0 108 72.5 191t212.5 157q-229 106 -229 330q0 125 70 220t188 144t264 49q225 0 352 -91.5
t127 -248.5q0 -188 -266 -315q150 -49 231.5 -133.5t81.5 -218.5q0 -129 -76 -227.5t-207.5 -150.5t-298.5 -52zM612 287q117 0 180.5 36.5t63.5 104.5q0 67 -59.5 104t-188.5 62q-57 10 -164 39q-88 -88 -88 -187q0 -159 256 -159z" />
    <glyph glyph-name="nine" unicode="9" horiz-adv-x="1224" 
d="M584 725q155 0 262 70v22q0 131 -62.5 211t-191.5 80q-217 0 -217 -195q0 -188 209 -188zM172 -14v321q140 6 245 26t192 60.5t142 108t78 162.5q-79 -64 -180.5 -96.5t-206.5 -32.5q-175 0 -274.5 92t-99.5 282q0 127 45 227t121 160.5t171 91.5t201 31q261 0 409 -148
t148 -419q0 -201 -75 -363.5t-208 -270t-313.5 -167t-394.5 -65.5z" />
    <glyph glyph-name="A" unicode="A" horiz-adv-x="1386" 
d="M786 1419l619 -1419h-365l-92 244h-534l-88 -244h-344l620 1419h184zM852 506l-174 461l-168 -461h342z" />
    <glyph glyph-name="B" unicode="B" horiz-adv-x="1208" 
d="M653 293q199 0 199 158q0 80 -52 112.5t-143 32.5q-151 0 -227 -2v-299q70 -2 223 -2zM643 819q86 0 130 39.5t44 114.5q0 65 -41 99t-139 34q-131 0 -207 -2v-285h213zM1159 391q0 -179 -115.5 -285t-326.5 -106h-598l6 690l-6 705h590q183 0 287 -89.5t104 -248.5
q0 -109 -60.5 -198.5t-187.5 -139.5q65 -15 117.5 -39.5t96.5 -63t68.5 -96t24.5 -129.5z" />
    <glyph glyph-name="C" unicode="C" horiz-adv-x="1271" 
d="M1174 1358v-340q-168 69 -357 69q-205 0 -312.5 -107t-107.5 -294q0 -175 100 -276.5t300 -100.5q96 0 202 28t191 73v-336q-196 -97 -430 -97q-323 0 -507.5 181.5t-184.5 503.5q0 183 56.5 328.5t156 238t231 140.5t285.5 48q114 0 198.5 -13.5t178.5 -45.5z" />
    <glyph glyph-name="D" unicode="D" horiz-adv-x="1419" 
d="M651 324q194 0 292.5 101t98.5 290q0 169 -93 262.5t-273 93.5q-2 0 -248 -6v-735q102 -6 223 -6zM119 0l6 690l-6 705q552 6 573 6q309 0 486.5 -171.5t177.5 -488.5q0 -145 -36 -267.5t-100 -209.5t-151.5 -148t-191.5 -90.5t-220 -29.5q-230 0 -538 4z" />
    <glyph glyph-name="E" unicode="E" horiz-adv-x="1130" 
d="M1014 1085h-580v-260h551v-235h-551v-281h600v-309h-915l6 690l-6 705h895v-310z" />
    <glyph glyph-name="F" unicode="F" horiz-adv-x="1085" 
d="M993 1083h-557v-311h529v-283h-527l2 -489h-319l6 690l-6 705h872v-312z" />
    <glyph glyph-name="G" unicode="G" horiz-adv-x="1404" 
d="M739 299q144 0 227 64t97 180h-336v239h604q10 -105 10 -204q0 -147 -45.5 -262.5t-127 -189.5t-192.5 -112.5t-245 -38.5q-306 0 -484.5 183t-178.5 504q0 146 37 269t104 211.5t159 151t202 93t233 30.5q126 0 219 -14.5t197 -50.5v-336q-190 78 -408 78
q-205 0 -309.5 -109t-104.5 -303q0 -175 87.5 -279.5t254.5 -103.5z" />
    <glyph glyph-name="H" unicode="H" horiz-adv-x="1437" 
d="M1319 1395l-6 -705l6 -690h-328l4 555h-553l4 -555h-327l6 690l-6 705h327l-4 -531h553l-4 531h328z" />
    <glyph glyph-name="I" unicode="I" horiz-adv-x="565" 
d="M446 1395l-6 -705l6 -690h-327l6 690l-6 705h327z" />
    <glyph glyph-name="J" unicode="J" horiz-adv-x="616" 
d="M487 496q4 -106 0 -194.5t-18.5 -157.5t-33 -124t-48.5 -97t-60.5 -73t-74 -57t-82.5 -43.5t-92 -36.5l-84 279q62 27 97 59.5t55 91.5t26 134.5t4 205.5l-8 912h326z" />
    <glyph glyph-name="K" unicode="K" horiz-adv-x="1304" 
d="M446 715v-25l7 -690h-328l6 690l-6 705h328l-7 -668l457 668h377v-11l-506 -661l545 -713v-10h-375z" />
    <glyph glyph-name="L" unicode="L" horiz-adv-x="1005" 
d="M446 1395l-6 -705l4 -381h519v-309h-844l6 690l-6 705h327z" />
    <glyph glyph-name="M" unicode="M" horiz-adv-x="1851" 
d="M1413 0l-45 885l-412 -901h-55l-432 897l-29 -881h-348l150 1405h309l399 -825l357 825h305l147 -1405h-346z" />
    <glyph glyph-name="N" unicode="N" horiz-adv-x="1423" 
d="M1235 -18l-813 786l8 -768h-309l6 1415h63l818 -805l-13 785h310l-7 -1413h-63z" />
    <glyph glyph-name="O" unicode="O" horiz-adv-x="1517" 
d="M756 1087q-176 0 -272.5 -107t-96.5 -294q0 -174 94.5 -276.5t276.5 -102.5q180 1 276 108.5t96 295.5q0 172 -96.5 274t-277.5 102zM770 1419q315 0 498.5 -181t183.5 -505q0 -183 -56 -329.5t-153 -239t-223.5 -141t-271.5 -48.5q-314 0 -498 183t-184 508
q0 183 56 328.5t153 237t223 139.5t272 48z" />
    <glyph glyph-name="P" unicode="P" horiz-adv-x="1198" 
d="M651 721q93 0 144 42.5t51 127.5q0 94 -50.5 144t-168.5 50q-124 0 -183 -2l-4 -360q57 -2 211 -2zM649 440q-85 0 -207 4l4 -444h-327l6 690l-6 705h553q221 0 351 -118t130 -323q0 -127 -42.5 -228t-114 -162t-160 -92.5t-187.5 -31.5z" />
    <glyph glyph-name="Q" unicode="Q" horiz-adv-x="1515" 
d="M1126 711q0 172 -95.5 274t-276.5 102q-178 0 -273.5 -107t-95.5 -294q0 -173 94.5 -276t276.5 -103q90 0 162 29l-193 211l158 151l192 -225q51 92 51 238zM61 666q0 183 56.5 328.5t154 237t224 139.5t272.5 48q315 0 498.5 -178.5t183.5 -497.5q0 -264 -166 -477
l215 -198l-225 -213l-172 241q-183 -121 -383 -121q-297 0 -477.5 184t-180.5 507z" />
    <glyph glyph-name="R" unicode="R" horiz-adv-x="1286" 
d="M670 764q178 0 178 156q0 80 -45 125t-154 45q-106 0 -205 -3l-4 -321q57 -2 230 -2zM918 0l-291 508q-71 0 -185 8l4 -516h-327l6 690l-6 705h573q231 0 350 -110t119 -300q0 -151 -61.5 -256.5t-171.5 -161.5l364 -557v-10h-374z" />
    <glyph glyph-name="S" unicode="S" horiz-adv-x="1136" 
d="M397 969q0 -56 43.5 -81.5t155.5 -45.5q236 -29 353.5 -120t117.5 -271q0 -119 -43.5 -211t-120 -148.5t-175.5 -85.5t-216 -29q-237 0 -434 76v346q127 -50 224.5 -74t229.5 -24q220 0 220 135q0 52 -41.5 82t-130.5 45q-264 38 -379 124t-115 271q0 112 45 201.5
t122 145.5t175.5 85t210.5 29q199 0 354 -61v-340q-167 78 -377 78q-219 0 -219 -127z" />
    <glyph glyph-name="T" unicode="T" horiz-adv-x="1136" 
d="M59 1395h1018v-322h-354l8 -1073h-330l9 1073h-351v322z" />
    <glyph glyph-name="U" unicode="U" horiz-adv-x="1421" 
d="M991 657l-8 738h324l-9 -733q6 -351 -148 -520t-448 -169q-299 0 -441 166t-136 514l-6 742h325l-8 -736q2 -182 68.5 -266.5t212.5 -83.5q143 0 208.5 87t65.5 261z" />
    <glyph glyph-name="V" unicode="V" horiz-adv-x="1368" 
d="M776 -25h-184l-619 1420h365l367 -953l342 953h348z" />
    <glyph glyph-name="W" unicode="W" horiz-adv-x="1869" 
d="M1290 -14l-368 835l-334 -835h-191l-411 1409h344l215 -797l370 813h41l394 -813l192 797h342l-409 -1409h-185z" />
    <glyph glyph-name="X" unicode="X" horiz-adv-x="1366" 
d="M979 0l-305 588l-293 -588h-383v12l436 703l-401 667v13h383l274 -543l264 543h379v-13l-401 -667l434 -703v-12h-387z" />
    <glyph glyph-name="Y" unicode="Y" horiz-adv-x="1300" 
d="M819 0h-325l8 524l-512 858v13h364l314 -627l290 627h353v-13l-502 -847z" />
    <glyph glyph-name="Z" unicode="Z" horiz-adv-x="1363" 
d="M1286 0h-1237l-8 20l694 1063h-600v312h1147l6 -19l-694 -1065h692v-311z" />
    <glyph glyph-name="a" unicode="a" horiz-adv-x="1173" 
d="M756 614q0 98 -50 146.5t-165 48.5q-164 0 -381 -66v304q202 59 407 59q141 0 236.5 -28.5t152.5 -89t82 -146.5t27 -211l6 -631h-260l-31 162q-94 -91 -193 -140t-225 -49q-130 0 -211 79.5t-81 221.5q0 155 98.5 235t267.5 83l320 4v18zM508 248q110 0 248 61v160
l-250 -14q-141 -11 -141 -105q0 -102 143 -102z" />
    <glyph glyph-name="b" unicode="b" horiz-adv-x="1245" 
d="M602 279q135 1 200.5 69.5t65.5 188.5q0 264 -237 264q-102 0 -201 -60l6 -452q88 -10 166 -10zM610 -25q-224 0 -495 76l2 746l-11 725h324v-576q80 76 159 119t181 43q183 0 291 -144.5t108 -402.5q0 -145 -42.5 -258.5t-118.5 -184.5t-177 -107.5t-221 -35.5z" />
    <glyph glyph-name="c" unicode="c" horiz-adv-x="968" 
d="M874 1077v-321q-99 47 -235 47q-133 0 -205 -69t-72 -191q0 -121 71 -192t208 -70q134 0 246 51v-312q-102 -45 -258 -45q-267 0 -417.5 142.5t-150.5 400.5q0 143 44 256.5t123 186t185 110t232 37.5q116 0 229 -31z" />
    <glyph glyph-name="d" unicode="d" horiz-adv-x="1236" 
d="M606 283q104 0 197 59l2 449q-96 14 -172 14q-135 -1 -201.5 -70t-66.5 -188q0 -264 241 -264zM1116 803l12 -803h-268l-31 162q-83 -87 -168 -137t-196 -50q-184 0 -291.5 142t-107.5 405q0 148 38.5 262t108 184t159 105t197.5 35q120 0 232 -51l-6 465h321v-719z" />
    <glyph glyph-name="e" unicode="e" horiz-adv-x="1167" 
d="M600 834q-213 0 -240 -201l457 14q-7 95 -64.5 141t-152.5 46zM1055 350v-291q-186 -84 -414 -84q-274 0 -424.5 146.5t-150.5 413.5q0 142 45 253.5t124 180t180.5 104t219.5 35.5q457 0 457 -463q0 -55 -7 -141l-727 4q14 -119 88.5 -183.5t210.5 -64.5q213 0 398 90z
" />
    <glyph glyph-name="f" unicode="f" horiz-adv-x="782" 
d="M492 1104v-19h258v-301h-256l8 -784h-322l4 784h-141v301h143q5 234 108.5 344.5t330.5 110.5q53 0 125 -10v-268q-74 8 -115 8q-146 0 -143 -166z" />
    <glyph glyph-name="g" unicode="g" horiz-adv-x="1142" 
d="M549 -137q115 0 185 14.5t96 37t26 56.5q0 54 -84 54q-6 0 -172.5 -2.5t-288.5 -2.5q-26 -44 -26 -73q0 -46 58 -65t206 -19zM559 860q-205 0 -205 -168q0 -166 213 -166q103 0 155 43.5t52 126.5q0 164 -215 164zM1137 -16q0 -102 -41.5 -172.5t-124 -111.5t-192 -59
t-259.5 -18q-271 0 -392.5 46t-121.5 155q0 113 158 221q-64 37 -64 102q0 108 168 234q-196 94 -196 317q0 102 39.5 182.5t108.5 129.5t157 74.5t190 25.5q121 0 219 -31q73 176 152 279l211 -170q-159 -132 -215 -184q117 -100 117 -267q0 -136 -67 -231t-176 -138.5
t-251 -43.5q-91 0 -160 14q-30 -52 -30 -80q0 -37 45 -37q34 0 197 6t231 6q153 0 225 -62t72 -187z" />
    <glyph glyph-name="h" unicode="h" horiz-adv-x="1245" 
d="M655 793q-103 0 -217 -56l11 -737h-334l2 829l-11 693h334l-4 -574q183 158 369 158q53 0 99 -11t89.5 -38.5t74.5 -70.5t49.5 -111.5t19.5 -157.5l6 -717h-334l4 618q1 95 -38 135t-120 40z" />
    <glyph glyph-name="i" unicode="i" horiz-adv-x="550" 
d="M272 1532q87 0 139 -44t52 -116q0 -88 -52.5 -135t-142.5 -47q-88 0 -139 43.5t-51 118.5q0 86 52.5 133t141.5 47zM428 793l14 -793h-327v815l-9 270h322v-292z" />
    <glyph glyph-name="j" unicode="j" horiz-adv-x="544" 
d="M272 1532q87 0 139 -44t52 -116q0 -87 -53 -134.5t-142 -47.5q-88 0 -139 43.5t-51 118.5q0 86 52.5 133t141.5 47zM438 147q2 -119 -20.5 -209t-59.5 -146.5t-97 -97t-118 -61t-139 -36.5l-49 299q97 24 129.5 67.5t32.5 142.5v707l-8 272h321v-473z" />
    <glyph glyph-name="k" unicode="k" horiz-adv-x="1196" 
d="M440 557v8l361 520h381v-10l-416 -514l446 -551v-10h-391zM434 829l12 -829h-325l2 856l-10 666h321v-693z" />
    <glyph glyph-name="l" unicode="l" horiz-adv-x="548" 
d="M428 829l12 -829h-325l2 856l-11 666h322v-693z" />
    <glyph glyph-name="m" unicode="m" horiz-adv-x="1857" 
d="M623 793q-87 0 -193 -54l12 -739h-327v815l-9 270h269l31 -159q184 180 362 180q219 0 289 -188q192 188 373 188q65 0 118.5 -18.5t99.5 -61t73 -121t28 -188.5l6 -717h-330l7 618q0 95 -37 135t-113 40q-89 0 -195 -58v-18l7 -717h-328l4 618q1 95 -35.5 135t-111.5 40
z" />
    <glyph glyph-name="n" unicode="n" horiz-adv-x="1232" 
d="M649 793q-107 0 -221 -56l14 -737h-327v815l-11 270h271l28 -159q191 180 396 180q67 0 121 -18.5t101.5 -61t74.5 -121t28 -188.5l6 -717h-329l6 618q0 95 -39 135t-119 40z" />
    <glyph glyph-name="o" unicode="o" horiz-adv-x="1251" 
d="M623 805q-126 0 -191 -68.5t-65 -193.5q0 -124 65.5 -193.5t196.5 -68.5q126 0 192 69t66 195q0 121 -67.5 190.5t-196.5 69.5zM631 1110q257 0 406 -144t149 -397q0 -143 -44.5 -258t-122.5 -187.5t-179.5 -110.5t-218.5 -38q-256 0 -407 144.5t-151 398.5
q0 142 45.5 256t123.5 186.5t180.5 111t218.5 38.5z" />
    <glyph glyph-name="p" unicode="p" horiz-adv-x="1236" 
d="M635 801q-108 0 -207 -64l6 -446q104 -15 176 -12q132 1 197 71t65 189q0 121 -56.5 191.5t-180.5 70.5zM676 -25q-124 0 -238 52l4 -377h-325l-2 1026l-9 409h275l22 -167q41 42 75.5 71t81 59t100.5 45t114 15q183 0 291.5 -141.5t108.5 -405.5q0 -144 -38.5 -257.5
t-106.5 -184.5t-157.5 -107.5t-195.5 -36.5z" />
    <glyph glyph-name="q" unicode="q" horiz-adv-x="1239" 
d="M608 279q99 0 195 57v457q-96 17 -178 14q-129 0 -194.5 -72.5t-65.5 -191.5q0 -56 13 -102t40.5 -83t76 -58t113.5 -21zM1122 -350h-323l4 481q-77 -73 -156 -114.5t-182 -41.5q-181 0 -290 139.5t-109 403.5q0 149 37.5 264t103 185t150 105.5t184.5 35.5
q166 0 307 -92l248 86l28 -17l-6 -438z" />
    <glyph glyph-name="r" unicode="r" horiz-adv-x="802" 
d="M768 1098v-344q-222 0 -332 -58l13 -696h-334v815l-11 270h275l39 -213q128 230 297 230q25 0 53 -4z" />
    <glyph glyph-name="s" unicode="s" horiz-adv-x="1015" 
d="M365 745q0 -37 35 -57t112 -31q107 -11 184 -30.5t138 -55.5t91.5 -93.5t30.5 -137.5q0 -91 -38 -161t-103.5 -112t-148 -63.5t-177.5 -21.5q-221 0 -407 53v297q88 -26 134.5 -38t126 -23t169.5 -11q154 0 154 80q0 35 -32 54t-102 30q-95 12 -160.5 26t-124.5 37.5
t-92.5 57t-53 83.5t-19.5 117q0 90 39 161.5t104.5 114.5t146 65t169.5 22q192 0 354 -59v-304q-172 82 -385 82q-145 0 -145 -82z" />
    <glyph glyph-name="t" unicode="t" horiz-adv-x="827" 
d="M752 10q-86 -28 -209 -28q-192 0 -289 94t-96 313l4 395h-131v179l145 81l213 291h84l-4 -250h281v-301h-283v-348q0 -82 33 -113.5t108 -31.5q61 0 144 18v-299z" />
    <glyph glyph-name="u" unicode="u" horiz-adv-x="1232" 
d="M852 0l-29 160q-191 -180 -395 -180q-67 0 -121.5 18.5t-101.5 61t-74.5 121t-28.5 188.5l-6 716h330l-6 -618q0 -95 38.5 -134.5t119.5 -39.5q109 0 221 55l-15 737h328v-778l10 -307h-270z" />
    <glyph glyph-name="v" unicode="v" horiz-adv-x="1124" 
d="M639 -23h-154l-505 1108h356l242 -641l225 641h342z" />
    <glyph glyph-name="w" unicode="w" horiz-adv-x="1589" 
d="M1102 -14l-320 585l-286 -585h-168l-348 1099h319l166 -575l315 594h35l330 -582l147 563h318l-350 -1099h-158z" />
    <glyph glyph-name="x" unicode="x" horiz-adv-x="1169" 
d="M809 0l-229 440l-224 -440h-350v10l344 545l-317 518v12h350l207 -407l198 407h349v-12l-316 -518l342 -545v-10h-354z" />
    <glyph glyph-name="y" unicode="y" horiz-adv-x="1126" 
d="M158 -383q-85 0 -129 16v301q27 -4 94 -4q172 0 305 152l-448 1003h354l250 -663l221 663h342l-473 -1054q-95 -213 -219 -313.5t-297 -100.5z" />
    <glyph glyph-name="z" unicode="z" horiz-adv-x="1148" 
d="M1065 0h-1012l-8 16l512 768h-428v301h942l6 -16l-514 -768h502v-301z" />
    <glyph glyph-name="uni00A0" unicode="&#xa0;" horiz-adv-x="491" 
 />
  </font>
</defs>
</svg>
